<?xml version="1.0" encoding="utf-8"?>
<!-- Generator: Adobe Illustrator 23.0.6, SVG Export Plug-In . SVG Version: 6.00 Build 0)  -->
<svg version="1.1" id="Layer_4" xmlns="http://www.w3.org/2000/svg" xmlns:xlink="http://www.w3.org/1999/xlink" x="0px" y="0px"
	 width="600px" height="600px" viewBox="0 0 600 600" style="enable-background:new 0 0 600 600;" xml:space="preserve">
<style type="text/css">
	.st0{clip-path:url(#XMLID_15_);}
	.st1{opacity:0.2;}
	.st2{clip-path:url(#XMLID_16_);}
	.st3{fill:#805830;}
	.st4{fill:#603813;}
	.st5{fill:#6BC87D;stroke:#074541;stroke-width:1.5;stroke-linecap:round;stroke-linejoin:round;stroke-miterlimit:10;}
	.st6{opacity:0.4;}
	
		.st7{clip-path:url(#XMLID_17_);fill:#39B551;stroke:#074541;stroke-width:1.5;stroke-linecap:round;stroke-linejoin:round;stroke-miterlimit:10;}
	
		.st8{clip-path:url(#XMLID_18_);fill:#39B551;stroke:#074541;stroke-width:1.5;stroke-linecap:round;stroke-linejoin:round;stroke-miterlimit:10;}
	
		.st9{clip-path:url(#XMLID_19_);fill:#39B551;stroke:#074541;stroke-width:1.5;stroke-linecap:round;stroke-linejoin:round;stroke-miterlimit:10;}
	
		.st10{clip-path:url(#XMLID_20_);fill:#39B551;stroke:#074541;stroke-width:1.5;stroke-linecap:round;stroke-linejoin:round;stroke-miterlimit:10;}
	
		.st11{clip-path:url(#XMLID_21_);fill:#39B551;stroke:#074541;stroke-width:1.5;stroke-linecap:round;stroke-linejoin:round;stroke-miterlimit:10;}
	
		.st12{clip-path:url(#XMLID_22_);fill:#39B551;stroke:#074541;stroke-width:1.5;stroke-linecap:round;stroke-linejoin:round;stroke-miterlimit:10;}
	
		.st13{clip-path:url(#XMLID_23_);fill:#39B551;stroke:#074541;stroke-width:1.5;stroke-linecap:round;stroke-linejoin:round;stroke-miterlimit:10;}
	
		.st14{clip-path:url(#XMLID_24_);fill:#39B551;stroke:#074541;stroke-width:1.5;stroke-linecap:round;stroke-linejoin:round;stroke-miterlimit:10;}
	
		.st15{clip-path:url(#XMLID_25_);fill:#39B551;stroke:#074541;stroke-width:1.5;stroke-linecap:round;stroke-linejoin:round;stroke-miterlimit:10;}
	
		.st16{clip-path:url(#XMLID_26_);fill:#39B551;stroke:#074541;stroke-width:1.5;stroke-linecap:round;stroke-linejoin:round;stroke-miterlimit:10;}
	
		.st17{clip-path:url(#XMLID_27_);fill:#39B551;stroke:#074541;stroke-width:1.5;stroke-linecap:round;stroke-linejoin:round;stroke-miterlimit:10;}
	.st18{fill:#08A326;}
	.st19{fill:#074541;}
</style>
<g>
	<g>
		<defs>
			<path id="XMLID_13_" d="M328.34,396.82c8.97,0,16.52-6.06,18.81-14.3c2.74,0.88,5.66,1.36,8.69,1.36
				c11.13,0,20.75-6.42,25.38-15.75c6.47,1.95,13.33,3.01,20.44,3.01c39.05,0,70.71-31.66,70.71-70.71c0-0.55-0.03-1.08-0.04-1.63
				c2.54,0.37,5.14,0.57,7.79,0.57c29.53,0,53.46-23.94,53.46-53.46c0-5.5-0.83-10.81-2.38-15.81
				c12.2-14.52,19.57-33.24,19.57-53.69c0-43.04-32.56-78.45-74.39-83c0.03-0.63,0.05-1.27,0.05-1.91c0-22.1-17.2-40.17-38.94-41.58
				c-3.49-18.97-20.11-33.35-40.09-33.35c-8.37,0-16.15,2.52-22.62,6.85c-9.65-9.64-22.97-15.6-37.69-15.6
				c-15.94,0-30.23,7-40,18.09C278.56,10.38,254.69,1,228.62,1c-58.86,0-106.57,47.71-106.57,106.57c0,1.69,0.05,3.37,0.13,5.04
				c-38.75,1.42-69.74,33.27-69.74,72.37c0,13.36,3.63,25.86,9.93,36.6c-8,6.37-13.13,16.19-13.13,27.21
				c0,19.21,15.57,34.78,34.78,34.78c0.5,0,1-0.02,1.49-0.04c-1.85,3.44-2.91,7.38-2.91,11.56c0,13.49,10.94,24.43,24.43,24.43
				c2.02,0,3.97-0.27,5.85-0.73c5.55,33.35,34.52,58.78,69.45,58.78c9.65,0,18.84-1.94,27.21-5.45c3.29,9.52,12.3,16.36,22.94,16.36
				c0,0,11.21,1.29,19.62-8.41c6.25-5.17,55.83-3.02,55.83-3.02S312.96,397.4,328.34,396.82z"/>
		</defs>
		<use xlink:href="#XMLID_13_"  style="overflow:visible;fill:#08A326;"/>
		<clipPath id="XMLID_15_">
			<use xlink:href="#XMLID_13_"  style="overflow:visible;"/>
		</clipPath>
		<g class="st0">
			<path class="st1" d="M380.66,186.74c0,0,2.87,60.32-18.4,112.64s-23.57,75.31-23.57,75.31s28.17,8.05,36.22-25.29
				c0.57-1.72,59.73,23,97.41-50.59c31.93,41.39-10.03,140.97-46.25,152.98c-36.22,12.01-233.4,25.8-309.28-59.28
				c-19.55-31.62-3.9-73.72-3.9-73.72s61.1,60.5,97.17,32.9c1.01,0,28.03,12.65,40.67-0.57c10.35-9.2-19.58-77.56-43.69-94.28
				c-8.62-6.32-18.4-67.26-18.4-67.26s5.75,1.99,11.5-0.73c2.87,1.88,5.17,43.27,24.72,62.24s31.04,46.56,31.62,44.84
				c0.57-1.72-2.72-157.39-2.72-157.39s6.94,2.28,11.3,0.58c2.34,0.44-3.75,180.95,34.94,224.06
				c3.62,12.65,68.58-82.78,62.84-182.24c0.57,0,3.26,1.15,7.95,3.45C375.48,186.71,380.66,186.74,380.66,186.74"/>
		</g>
		
			<use xlink:href="#XMLID_13_"  style="overflow:visible;fill:none;stroke:#074541;stroke-width:1.5;stroke-linecap:round;stroke-linejoin:round;stroke-miterlimit:10;"/>
	</g>
	<g>
		<defs>
			<path id="XMLID_3_" d="M242.83,597.13V364.86c0-60.28-36.15-115.2-92.14-137.54c-1.18-0.47-2.37-0.93-3.57-1.38l5.17-8.62
				c0,0,25.01,8.19,44.84,25.87c1.29,0.43-13.37-30.18-16.38-55.62c0.86-0.43,12.07-0.43,12.07-0.43s7.33,48.29,22.42,66.83
				s27.59,34.49,33.2,47.43c0,0-2.16-86.66-2.59-141.85c0-11.21,0-22.85,0-22.85h13.8c0,0-1.72,68.12,3.02,109.95
				c4.74,41.82,9.92,81.92,27.16,98.3c0,0,61.22-65.54,56.48-172.46c2.59,0.86,17.68-5.17,26.73,5.61
				c3.45,3.88,1.29,70.71-31.04,142.71c-24.58,62.52-22.85,106.5-22.85,106.5v166.86"/>
		</defs>
		<use xlink:href="#XMLID_3_"  style="overflow:visible;fill:#A67C52;"/>
		<clipPath id="XMLID_16_">
			<use xlink:href="#XMLID_3_"  style="overflow:visible;"/>
		</clipPath>
		<g class="st2">
			<path class="st3" d="M258.26,610.07c0.1-8.67,0-17.44-0.03-26.16l-0.18-26.19l-0.33-52.39c-0.13-17.46-0.37-34.92-0.27-52.39
				c0.15-17.46,0.27-34.92,0.81-52.39l0.2,0c0.61,17.46,0.78,34.92,0.99,52.38c0.16,17.46-0.04,34.92-0.13,52.39l-0.27,52.39
				l-0.22,26.19l-0.13,13.1l-0.08,6.55c-0.03,2.18-0.05,4.36-0.16,6.58L258.26,610.07z"/>
		</g>
		<g class="st2">
			<path class="st3" d="M273.34,556.64l-0.4-26.3l-0.3-26.3c-0.11-8.77-0.33-17.53-0.2-26.3c0.18-8.77,0.33-17.53,0.9-26.3h0.2
				c0.57,8.77,0.72,17.53,0.9,26.3c0.13,8.77-0.09,17.53-0.2,26.3l-0.3,26.3l-0.4,26.3H273.34z"/>
		</g>
		<g class="st2">
			<path class="st3" d="M299.21,572.16l-0.4-18.22l-0.3-18.22c-0.11-6.07-0.33-12.14-0.2-18.22c0.07-3.04,0.14-6.07,0.3-9.11
				l0.24-4.55c0.12-1.52,0.2-3.04,0.36-4.55h0.2c0.15,1.52,0.24,3.04,0.36,4.55l0.24,4.55c0.16,3.04,0.23,6.07,0.3,9.11
				c0.13,6.07-0.09,12.14-0.2,18.22l-0.3,18.22l-0.4,18.22H299.21z"/>
		</g>
		<g class="st2">
			<path class="st3" d="M286.06,460.72c-0.42-3.17-0.62-6.36-0.62-9.57c0.05-3.21,0.28-6.43,0.89-9.62
				c0.61-3.17,1.47-6.45,3.46-9.21c1.01-1.35,2.24-2.58,3.7-3.45c1.44-0.89,3.1-1.38,4.72-1.46l0.04,0.2
				c-1.49,0.61-2.81,1.42-3.94,2.4c-1.13,0.99-2.08,2.15-2.86,3.42c-1.51,2.57-2.8,5.4-3.56,8.44c-0.78,3.02-1.21,6.16-1.45,9.31
				c-0.26,3.15-0.34,6.34-0.18,9.51L286.06,460.72z"/>
		</g>
		<g class="st2">
			<path class="st3" d="M311.7,443.87c0.86,4.01,1.46,8.07,1.82,12.17c0.33,4.1,0.4,8.23,0.04,12.37
				c-0.44,4.09-1.06,8.39-3.39,12.09c-1.14,1.82-2.66,3.48-4.54,4.58c-1.86,1.13-4.02,1.62-6.09,1.59l-0.02-0.2
				c1.99-0.51,3.81-1.36,5.32-2.55c1.5-1.2,2.7-2.73,3.61-4.43c1.83-3.4,2.93-7.29,3.52-11.27c0.55-3.99,0.68-8.06,0.55-12.13
				c-0.1-4.07-0.42-8.15-1.02-12.18L311.7,443.87z"/>
		</g>
		<g class="st2">
			<path class="st3" d="M258.57,337.73c0.38,0.18,0.5,0.39,0.74,0.59l0.61,0.63c0.4,0.43,0.78,0.87,1.16,1.31
				c0.75,0.89,1.48,1.8,2.18,2.73c1.41,1.86,2.74,3.78,4,5.74c2.48,3.96,4.68,8.1,6.55,12.39c1.85,4.3,3.55,8.72,4.44,13.35
				c0.24,1.15,0.4,2.32,0.59,3.48c0.12,1.17,0.3,2.33,0.35,3.51c0.2,2.34,0.14,4.7-0.03,7.03l-0.2,0.01
				c-0.72-4.61-1.5-9.13-2.66-13.58c-1.14-4.43-2.31-8.88-3.97-13.18c-1.66-4.29-3.64-8.47-5.93-12.49
				c-1.13-2.01-2.34-3.99-3.63-5.91c-0.64-0.96-1.31-1.91-2.01-2.83c-0.35-0.46-0.7-0.92-1.07-1.36l-0.56-0.66
				c-0.17-0.2-0.43-0.46-0.56-0.56V337.73z"/>
		</g>
		<g class="st2">
			<path class="st3" d="M253.02,354.77c0.23,0.41,0.18,0.67,0.25,1.01l0.11,0.96l0.15,1.92l0.22,3.83l0.26,7.67
				c0.06,2.56,0.28,5.11,0.1,7.67c-0.18,2.55-0.44,5.1-1.04,7.64l-0.2,0c-0.5-2.56-0.67-5.12-0.76-7.67
				c-0.11-2.55,0.19-5.1,0.3-7.65l0.34-7.65l0.16-3.82l0.04-1.91l0.01-0.95c0-0.29-0.03-0.69-0.05-0.87L253.02,354.77z"/>
		</g>
		<g class="st2">
			<path class="st3" d="M287.72,365.55c0.31,0.29,0.37,0.6,0.5,0.91c0.12,0.31,0.21,0.62,0.31,0.93c0.19,0.62,0.34,1.25,0.5,1.88
				c0.31,1.26,0.6,2.52,0.88,3.78l1.52,7.6c0.48,2.53,1.12,5.04,1.37,7.61c0.26,2.57,0.45,5.14,0.35,7.77l-0.2,0.04
				c-0.99-2.44-1.6-4.97-2.13-7.49c-0.54-2.53-0.67-5.11-0.98-7.67l-0.92-7.67c-0.15-1.28-0.31-2.56-0.5-3.83
				c-0.1-0.63-0.19-1.27-0.31-1.9c-0.06-0.31-0.12-0.63-0.19-0.94c-0.07-0.3-0.17-0.65-0.3-0.83L287.72,365.55z"/>
		</g>
		<g class="st2">
			<path class="st3" d="M303.78,418.27c-0.18-1.6-0.12-3.1-0.13-4.65c0.01-1.54,0.05-3.08,0.11-4.62c0.15-3.07,0.39-6.15,0.74-9.22
				c0.36-3.06,0.62-6.17,1.49-9.16c0.85-2.98,1.92-5.95,3.63-8.58l0.18,0.08c-0.68,3.03-1.29,5.98-1.86,8.96
				c-0.56,2.97-1.32,5.93-1.85,8.93c-0.54,3-0.97,6.03-1.32,9.07c-0.19,1.52-0.36,3.04-0.51,4.56c-0.13,1.51-0.3,3.09-0.29,4.55
				L303.78,418.27z"/>
		</g>
		<g class="st2">
			<path class="st4" d="M282.71,335.67c1.92,2.22,3.75,4.47,5.6,6.71c1.85,2.22,3.56,4.57,5.5,6.72c1.93,2.15,3.95,4.24,6.19,6.06
				c2.22,1.84,4.61,3.52,7.32,4.59c0.04,0.01,0.06,0.06,0.04,0.1c-0.01,0.04-0.06,0.06-0.09,0.05c-2.81-0.88-5.36-2.43-7.74-4.14
				c-2.38-1.74-4.54-3.75-6.6-5.83c-2.06-2.09-4.1-4.23-5.81-6.62c-1.71-2.39-3.3-4.86-4.54-7.54c-0.02-0.04,0-0.08,0.04-0.1
				C282.65,335.64,282.69,335.65,282.71,335.67z"/>
		</g>
		<g class="st2">
			<path class="st3" d="M303.53,350.73c8.07-12.48,15.58-25.22,22.35-38.39c6.77-13.15,12.89-26.66,17.72-40.61l0.92-2.61
				c0.3-0.87,0.54-1.76,0.81-2.64l1.59-5.3c0.57-1.75,0.98-3.55,1.41-5.34l1.29-5.37c0.25-0.89,0.38-1.8,0.54-2.7l0.47-2.72
				l0.94-5.43l1.55-11c1.1-7.32,2.06-14.66,3.03-22c0.49-3.67,0.94-7.34,1.33-11.02c0.21-1.84,0.4-3.68,0.56-5.52
				c0.14-1.83,0.32-3.7,0.22-5.51l0.19-0.05c0.26,1.88,0.19,3.73,0.16,5.59c-0.04,1.86-0.13,3.71-0.23,5.56
				c-0.23,3.7-0.53,7.4-0.86,11.1c-0.68,7.39-1.55,14.75-2.44,22.11l-1.47,11.02c-0.29,1.84-0.67,3.67-1,5.51l-0.51,2.75
				c-0.17,0.92-0.32,1.84-0.58,2.74l-1.4,5.41c-0.46,1.8-0.91,3.61-1.52,5.37l-1.7,5.32c-0.29,0.88-0.55,1.78-0.87,2.65l-0.97,2.61
				c-5.06,13.98-11.38,27.45-18.35,40.54c-1.74,3.27-3.58,6.49-5.39,9.73c-1.88,3.2-3.71,6.42-5.66,9.57
				c-3.83,6.33-7.88,12.59-11.98,18.69L303.53,350.73z"/>
		</g>
		<g class="st2">
			<path class="st3" d="M331.13,317.95c1.73-3.73,3.39-7.48,5.02-11.25c1.66-3.76,3.28-7.53,4.84-11.32
				c1.56-3.79,2.94-7.66,4.56-11.41c1.62-3.76,3.23-7.51,4.97-11.27l0.19,0.06c-0.69,4.09-1.92,8.06-3.3,11.94
				c-1.37,3.9-3.23,7.59-4.96,11.32c-1.74,3.73-3.56,7.42-5.4,11.1c-1.88,3.66-3.78,7.31-5.75,10.92L331.13,317.95z"/>
		</g>
		<g class="st2">
			<path class="st3" d="M213.12,262.72c1.8,1.59,3.3,3.34,4.91,5.06c1.57,1.73,3.11,3.49,4.62,5.28c3,3.59,5.92,7.26,8.68,11.04
				c2.74,3.8,5.58,7.57,7.78,11.74c2.21,4.15,4.18,8.48,5.31,13.06l-0.19,0.07c-2.15-4.17-4.45-8.18-6.86-12.13l-3.62-5.94
				c-1.2-1.99-2.44-3.95-3.74-5.88c-2.58-3.87-5.32-7.64-8.15-11.34c-1.4-1.86-2.84-3.7-4.3-5.52c-1.47-1.79-2.94-3.67-4.54-5.27
				L213.12,262.72z"/>
		</g>
		<g class="st2">
			<path class="st3" d="M250.69,130.66l0.76,30.29c0.14,5.05,0.45,10.09,0.41,15.13c-0.01,5.05-0.12,10.08-0.31,15.15l-0.2,0.02
				c-0.92-5.01-1.24-10.07-1.49-15.12c-0.24-5.05-0.05-10.11-0.01-15.16l0.23-15.15l0.41-15.15L250.69,130.66z"/>
		</g>
		<g class="st2">
			<path class="st3" d="M255,177.62c0.35,10.09,0.59,20.08,0.99,30.11c0.35,10.03,0.78,20.05,1.35,30.06
				c0.57,10.01,1.38,20,2.13,29.99c0.34,4.99,0.81,9.98,1.36,14.95l0.45,3.72c0.19,1.23,0.34,2.48,0.55,3.71
				c0.38,2.47,0.88,4.92,1.57,7.32l-0.19,0.07c-1.92-4.68-2.9-9.68-3.77-14.63c-0.85-4.97-1.41-9.97-1.97-14.97
				c-1.02-10.01-1.38-20.06-1.74-30.09c-0.37-10.04-0.6-20.07-0.75-30.11c-0.13-10.02-0.12-20.1-0.18-30.08L255,177.62z"/>
		</g>
		<g class="st2">
			<path class="st3" d="M255,300.94c1.04,2.78,2.38,5.49,3.7,8.17c1.31,2.69,2.7,5.34,4.16,7.94c1.46,2.61,3.16,5.06,4.59,7.67
				c1.46,2.59,2.96,5.15,4.35,7.87l-0.16,0.12c-2.26-2.05-4.17-4.44-5.89-6.94c-1.71-2.51-2.99-5.27-4.31-7.98
				c-1.3-2.73-2.52-5.48-3.66-8.27c-1.09-2.82-2.17-5.61-2.98-8.54L255,300.94z"/>
		</g>
		<g class="st2">
			<path class="st3" d="M159.23,226.07c7.36,3.46,14.55,7.3,21.48,11.62c1.75,1.05,3.45,2.18,5.18,3.28
				c1.68,1.17,3.36,2.34,4.92,3.68c3.11,2.66,6.12,5.55,8.34,9.03l-0.15,0.13c-3.03-2.73-6.2-5.19-9.43-7.59
				c-3.23-2.39-6.39-4.91-9.73-7.19c-3.33-2.3-6.73-4.5-10.2-6.61c-3.45-2.14-6.94-4.21-10.5-6.17L159.23,226.07z"/>
		</g>
		<g class="st2">
			<path class="st3" d="M189.22,202.16c0.21,0.38,0.32,0.75,0.45,1.11c0.13,0.36,0.24,0.73,0.35,1.1l0.67,2.2l1.32,4.4
				c0.85,2.94,1.73,5.86,2.64,8.78c0.91,2.91,2.03,5.75,2.85,8.67c0.87,2.91,1.67,5.81,2.72,8.69l-0.17,0.11
				c-0.49-0.6-0.98-1.22-1.4-1.88c-0.39-0.67-0.83-1.33-1.16-2.03c-0.35-0.69-0.69-1.4-1-2.1l-0.88-2.15
				c-1.12-2.88-1.74-5.91-2.49-8.88c-0.72-2.98-1.41-5.97-2.07-8.96l-0.94-4.5l-0.48-2.24c-0.17-0.73-0.32-1.54-0.56-2.17
				L189.22,202.16z"/>
		</g>
		<g class="st2">
			<path class="st1" d="M312.25,597.13V408.12c0-10.57,1.15-21.1,3.46-31.41c3.94-17.63,11.69-45.37,25.43-71.01
				c22.42-41.82,25.01-115.98,25.01-115.98s-3.45-0.43-7.33-7.11c-1.29-1.08-20.7,7.55-26.73-2.37
				c-6.04-9.92,20.26-25.44,43.12-21.56s33.63,16.82,30.61,35.35s-37.94,217.73-46.13,244.9S401.93,605.72,312.25,597.13z"/>
		</g>
		<g class="st2">
			<path class="st1" d="M301.49,356.76c0,0,11.62-47.6,18.81-68.88S300,282.42,300,282.42l-10.46,61.22
				C289.54,343.65,292.17,350.9,301.49,356.76z"/>
		</g>
		<g class="st2">
			<path class="st1" d="M254.47,128.5c-1.27,0.24-8.19,185.4,35.35,217.73C288.53,100.04,314.83,117.29,254.47,128.5z"/>
		</g>
		<g class="st2">
			<path class="st1" d="M184.62,176.36c0,0,9.92,56.05,23.28,74.16s40.53,50.88,40.53,50.88l-29.75-133.66L184.62,176.36z"/>
		</g>
		
			<use xlink:href="#XMLID_3_"  style="overflow:visible;fill:none;stroke:#603813;stroke-width:1.5;stroke-linecap:round;stroke-linejoin:round;stroke-miterlimit:10;"/>
	</g>
	<path class="st5" d="M218.68,599c0,0-0.22-8.62-8.62-14.66c0,0,14.01,1.08,18.97,14.01c0,0.43,2.16-16.38-9.92-27.81
		c0.86,0.65,21.99,4.53,28.46,22.85c0.86,0.43,5.39-13.58,4.53-21.34c0.22,1.29,7.33,13.15,6.04,23.28
		c1.08,1.51,5.61-19.62,18.54-26.73c0.22,0.22-8.19,14.66-2.8,26.3c-0.86,0.43,9.49-10.99,8.84-17.68
		c0.22,0.43,4.31,7.76,1.72,18.11c-0.43-0.22,12.5-14.44,10.13-29.97c2.16,1.51,6.04,13.15,2.59,31.47
		c1.29,1.08,4.1-14.66,10.13-21.34c0.86,1.29-3.88,10.56,5.61,19.19c0.22,0.22,7.33-19.83,18.97-26.73
		c1.72,0.86-6.04,14.44-4.31,26.73c0.22-1.29,9.92-15.09,18.32-18.32c0.22,0.43-6.04,6.68-2.59,18.11c0,0,3.66-6.68,9.49-8.62
		c0.43,0.65-2.8,7.17,2.16,13.43"/>
	<ellipse class="st4" cx="300.17" cy="457.15" rx="8.19" ry="23.17"/>
	<g class="st6">
		<g>
			<defs>
				<path id="XMLID_1_" d="M171.8,326.11c0,0-4.86-11.48-23.34-11.09c-11.48-0.19-14.59-0.78-14.59-0.78S143.98,340.7,171.8,326.11z
					"/>
			</defs>
			<use xlink:href="#XMLID_1_"  style="overflow:visible;fill:#39B551;"/>
			<clipPath id="XMLID_17_">
				<use xlink:href="#XMLID_1_"  style="overflow:visible;"/>
			</clipPath>
			<path class="st7" d="M173.2,326.98c-0.36-0.14-5.1-5.61-17.82-3.74"/>
			
				<use xlink:href="#XMLID_1_"  style="overflow:visible;fill:none;stroke:#074541;stroke-width:1.5;stroke-linecap:round;stroke-linejoin:round;stroke-miterlimit:10;"/>
		</g>
		<g>
			<defs>
				<path id="XMLID_2_" d="M171.8,326.11c0,0-10.89-21.01-2.53-37.74C169.27,288.37,191.44,306.46,171.8,326.11z"/>
			</defs>
			<use xlink:href="#XMLID_2_"  style="overflow:visible;fill:#39B551;"/>
			<clipPath id="XMLID_18_">
				<use xlink:href="#XMLID_2_"  style="overflow:visible;"/>
			</clipPath>
			<path class="st8" d="M172.19,311.45c0,0,2.44,10.13-1.37,16.38"/>
			
				<use xlink:href="#XMLID_2_"  style="overflow:visible;fill:none;stroke:#074541;stroke-width:1.5;stroke-linecap:round;stroke-linejoin:round;stroke-miterlimit:10;"/>
		</g>
		<g>
			<defs>
				<path id="XMLID_5_" d="M182.33,110.02c0,0-2.57-12.2,12.81-22.45c9.3-6.72,11.52-8.98,11.52-8.98S213.49,106.08,182.33,110.02z"
					/>
			</defs>
			<use xlink:href="#XMLID_5_"  style="overflow:visible;fill:#39B551;"/>
			<clipPath id="XMLID_19_">
				<use xlink:href="#XMLID_5_"  style="overflow:visible;"/>
			</clipPath>
			<path class="st9" d="M181.68,111.53c0.21-0.32,0.98-7.52,12.48-13.26"/>
			
				<use xlink:href="#XMLID_5_"  style="overflow:visible;fill:none;stroke:#074541;stroke-width:1.5;stroke-linecap:round;stroke-linejoin:round;stroke-miterlimit:10;"/>
		</g>
		<g>
			<defs>
				<path id="XMLID_12_" d="M129.11,188.85c0,0,1.55-12.37-14.64-21.3c-9.83-5.92-12.23-7.99-12.23-7.99S97.73,187.53,129.11,188.85
					z"/>
			</defs>
			<use xlink:href="#XMLID_12_"  style="overflow:visible;fill:#39B551;"/>
			<clipPath id="XMLID_20_">
				<use xlink:href="#XMLID_12_"  style="overflow:visible;"/>
			</clipPath>
			<path class="st10" d="M129.89,190.3c-0.24-0.3-1.6-7.41-13.55-12.17"/>
			
				<use xlink:href="#XMLID_12_"  style="overflow:visible;fill:none;stroke:#074541;stroke-width:1.5;stroke-linecap:round;stroke-linejoin:round;stroke-miterlimit:10;"/>
		</g>
		<g>
			<defs>
				<path id="XMLID_4_" d="M182.33,110.02c0,0-3.08-23.46-19.51-32.4C162.82,77.62,154.98,105.14,182.33,110.02z"/>
			</defs>
			<use xlink:href="#XMLID_4_"  style="overflow:visible;fill:#39B551;"/>
			<clipPath id="XMLID_21_">
				<use xlink:href="#XMLID_4_"  style="overflow:visible;"/>
			</clipPath>
			<path class="st11" d="M173.63,98.23c0,0,3.79,9.71,10.49,12.66"/>
			
				<use xlink:href="#XMLID_4_"  style="overflow:visible;fill:none;stroke:#074541;stroke-width:1.5;stroke-linecap:round;stroke-linejoin:round;stroke-miterlimit:10;"/>
		</g>
		<g>
			<defs>
				<path id="XMLID_7_" d="M367.48,112.92c0,0-8.39-9.21-0.32-25.84c4.62-10.51,5.39-13.58,5.39-13.58S392.35,93.75,367.48,112.92z"
					/>
			</defs>
			<use xlink:href="#XMLID_7_"  style="overflow:visible;fill:#39B551;"/>
			<clipPath id="XMLID_22_">
				<use xlink:href="#XMLID_7_"  style="overflow:visible;"/>
			</clipPath>
			<path class="st12" d="M367.68,114.56c0.02-0.39-2.96-6.98,4.05-17.75"/>
			
				<use xlink:href="#XMLID_7_"  style="overflow:visible;fill:none;stroke:#074541;stroke-width:1.5;stroke-linecap:round;stroke-linejoin:round;stroke-miterlimit:10;"/>
		</g>
		<g>
			<defs>
				<path id="XMLID_6_" d="M367.48,112.92c0,0-14.53-18.67-33.23-18.07C334.25,94.86,341.42,122.56,367.48,112.92z"/>
			</defs>
			<use xlink:href="#XMLID_6_"  style="overflow:visible;fill:#39B551;"/>
			<clipPath id="XMLID_23_">
				<use xlink:href="#XMLID_6_"  style="overflow:visible;"/>
			</clipPath>
			<path class="st13" d="M354,107.16c0,0,8.18,6.45,15.46,5.61"/>
			
				<use xlink:href="#XMLID_6_"  style="overflow:visible;fill:none;stroke:#074541;stroke-width:1.5;stroke-linecap:round;stroke-linejoin:round;stroke-miterlimit:10;"/>
		</g>
		<g>
			<defs>
				<path id="XMLID_9_" d="M440.16,196.49c0,0,11.99-3.42,13.87-21.81c1.6-11.37,2.56-14.38,2.56-14.38S429.09,167.1,440.16,196.49z
					"/>
			</defs>
			<use xlink:href="#XMLID_9_"  style="overflow:visible;fill:#39B551;"/>
			<clipPath id="XMLID_24_">
				<use xlink:href="#XMLID_9_"  style="overflow:visible;"/>
			</clipPath>
			<path class="st14" d="M439.12,197.77c0.19-0.34,6.19-4.38,5.89-17.23"/>
			
				<use xlink:href="#XMLID_9_"  style="overflow:visible;fill:none;stroke:#074541;stroke-width:1.5;stroke-linecap:round;stroke-linejoin:round;stroke-miterlimit:10;"/>
		</g>
		<g>
			<defs>
				<path id="XMLID_8_" d="M440.16,196.49c0,0,22.19-8.23,37.76,2.12C477.92,198.61,457.25,218.4,440.16,196.49z"/>
			</defs>
			<use xlink:href="#XMLID_8_"  style="overflow:visible;fill:#39B551;"/>
			<clipPath id="XMLID_25_">
				<use xlink:href="#XMLID_8_"  style="overflow:visible;"/>
			</clipPath>
			<path class="st15" d="M454.65,198.68c0,0-10.36,1.18-16.09-3.36"/>
			
				<use xlink:href="#XMLID_8_"  style="overflow:visible;fill:none;stroke:#074541;stroke-width:1.5;stroke-linecap:round;stroke-linejoin:round;stroke-miterlimit:10;"/>
		</g>
		<g>
			<defs>
				<path id="XMLID_11_" d="M397.26,294.27c0,0,8.12-9.46,25.61-3.47c10.99,3.3,14.14,3.69,14.14,3.69S419.33,316.62,397.26,294.27z
					"/>
			</defs>
			<use xlink:href="#XMLID_11_"  style="overflow:visible;fill:#39B551;"/>
			<clipPath id="XMLID_26_">
				<use xlink:href="#XMLID_11_"  style="overflow:visible;"/>
			</clipPath>
			<path class="st16" d="M395.67,294.67c0.39-0.03,6.56-3.79,18.11,1.85"/>
			
				<use xlink:href="#XMLID_11_"  style="overflow:visible;fill:none;stroke:#074541;stroke-width:1.5;stroke-linecap:round;stroke-linejoin:round;stroke-miterlimit:10;"/>
		</g>
		<g>
			<defs>
				<path id="XMLID_10_" d="M397.26,294.27c0,0,16.76-16.71,13.87-35.19C411.13,259.08,384.51,269.58,397.26,294.27z"/>
			</defs>
			<use xlink:href="#XMLID_10_"  style="overflow:visible;fill:#39B551;"/>
			<clipPath id="XMLID_27_">
				<use xlink:href="#XMLID_10_"  style="overflow:visible;"/>
			</clipPath>
			<path class="st17" d="M401.34,280.19c0,0-5.4,8.91-3.67,16.02"/>
			
				<use xlink:href="#XMLID_10_"  style="overflow:visible;fill:none;stroke:#074541;stroke-width:1.5;stroke-linecap:round;stroke-linejoin:round;stroke-miterlimit:10;"/>
		</g>
	</g>
	<g>
		<path class="st18" d="M133.32,239.31c0,0,13.8-1.72,11.21-11.64c0.86-0.65,13.58-3.66,9.92-16.38"/>
		<path class="st19" d="M133.3,239.21c1.51-0.23,3.01-0.64,4.44-1.18c1.43-0.55,2.81-1.25,4-2.21c1.19-0.94,2.15-2.19,2.6-3.64
			c0.47-1.44,0.37-3.01-0.01-4.47l-0.01-0.03c-0.02-0.07,0.02-0.14,0.08-0.17c0.89-0.45,1.68-0.71,2.51-1.09
			c0.81-0.38,1.61-0.78,2.36-1.26c1.51-0.94,2.87-2.13,3.88-3.59c1.04-1.44,1.6-3.2,1.74-4.96c0.13-0.89,0.02-1.78-0.04-2.67
			c-0.09-0.89-0.35-1.75-0.51-2.63c-0.01-0.05,0.03-0.11,0.08-0.12c0.05-0.01,0.09,0.02,0.11,0.06c0.36,0.83,0.79,1.68,1.03,2.6
			c0.21,0.92,0.45,1.86,0.43,2.85c0.08,0.98-0.12,1.97-0.3,2.97l-0.5,1.45c-0.2,0.47-0.46,0.91-0.7,1.37
			c-1.06,1.76-2.57,3.2-4.21,4.3c-0.83,0.55-1.69,1.01-2.56,1.43c-0.43,0.2-0.88,0.41-1.3,0.58l-0.62,0.24l-0.29,0.11
			c0.01,0,0.05-0.03,0.06-0.06l0.65-1.87c0.41,1.72,0.54,3.7-0.16,5.52c-0.33,0.9-0.81,1.74-1.39,2.46c-0.59,0.72-1.29,1.3-2,1.8
			c-1.43,1.01-3.02,1.58-4.59,1.97c-1.58,0.36-3.18,0.55-4.77,0.44l-0.02,0c-0.05,0-0.1-0.05-0.09-0.11
			C133.22,239.25,133.26,239.21,133.3,239.21z"/>
	</g>
	<g>
		<path class="st18" d="M168.02,185.41c0.65,0,8.84,10.13,19.19,2.8c1.51-1.05,12.72,7.76,19.83-5.61"/>
		<path class="st19" d="M168.02,185.31c0.32,0.11,0.43,0.28,0.63,0.42l0.53,0.45c0.35,0.3,0.71,0.6,1.07,0.88
			c0.73,0.57,1.48,1.1,2.28,1.57c1.58,0.94,3.31,1.64,5.12,1.93c1.81,0.29,3.68,0.14,5.42-0.44c0.87-0.28,1.71-0.65,2.5-1.11
			c0.4-0.22,0.79-0.46,1.17-0.73l0.29-0.19c0.06-0.05,0.28-0.17,0.4-0.16c0.29-0.04,0.52,0.02,0.76,0.07
			c1.82,0.52,3.51,1.25,5.32,1.6c1.79,0.38,3.66,0.46,5.44,0.02c1.78-0.43,3.42-1.38,4.73-2.66c1.33-1.27,2.4-2.8,3.27-4.42
			c0.03-0.05,0.09-0.07,0.13-0.04c0.04,0.02,0.06,0.07,0.05,0.12l-0.01,0.02c-0.54,1.82-1.45,3.55-2.72,5.09
			c-1.27,1.52-3.04,2.8-5.08,3.42c-2.03,0.67-4.21,0.61-6.2,0.29c-1-0.16-1.96-0.45-2.89-0.73c-0.9-0.28-1.86-0.62-2.51-0.77
			c-0.05,0-0.16-0.04-0.16-0.03c-0.01,0-0.01,0-0.02-0.01c0,0,0.09,0.01,0.13-0.01c0.04-0.01,0.03-0.01,0.1-0.03
			c0.08-0.02,0.16-0.04,0.24-0.08c0.07-0.03,0.15-0.09,0.2-0.13l-0.08,0.05l-0.32,0.21c-0.42,0.28-0.86,0.55-1.32,0.79
			c-0.9,0.49-1.86,0.92-2.88,1.2c-2.02,0.56-4.22,0.7-6.24,0.2c-2.03-0.45-3.85-1.41-5.42-2.58c-0.77-0.61-1.5-1.24-2.15-1.94
			c-0.33-0.35-0.64-0.71-0.95-1.07c-0.28-0.35-0.61-0.79-0.86-1.03l-0.08-0.08c-0.03-0.03-0.03-0.08,0-0.11
			C167.97,185.31,168,185.3,168.02,185.31z"/>
	</g>
	<g>
		<path class="st18" d="M223.21,133.89c0.22,0.86,14.23,17.25,32.55,3.23c2.16-0.43,11.21,7.98,19.19-6.25"/>
		<path class="st19" d="M223.31,133.87c0.35,0.59,0.92,1.18,1.44,1.71c0.54,0.54,1.1,1.05,1.69,1.53c1.17,0.97,2.43,1.83,3.75,2.58
			c2.64,1.5,5.57,2.5,8.59,2.81c3.02,0.29,6.09-0.12,8.94-1.14c2.85-1.04,5.52-2.54,7.94-4.38l0.01-0.01
			c0.02-0.01,0.04-0.02,0.06-0.02c0.58-0.06,1.03,0.15,1.49,0.3l1.34,0.53c0.89,0.36,1.78,0.68,2.7,0.91
			c1.83,0.47,3.79,0.5,5.59-0.11c1.8-0.59,3.37-1.76,4.68-3.13c1.32-1.38,2.4-2.97,3.34-4.63c0.03-0.05,0.09-0.06,0.14-0.04
			c0.04,0.02,0.06,0.08,0.04,0.12l-0.01,0.01c-0.69,1.82-1.65,3.54-2.88,5.13c-1.21,1.6-2.85,3.01-4.87,3.83
			c-2.03,0.82-4.35,0.89-6.43,0.46c-1.04-0.22-2.03-0.55-2.96-0.89l-1.32-0.47c-0.2-0.07-0.39-0.12-0.52-0.15
			c-0.13-0.04-0.22,0.01,0.05-0.03l0.71-0.32c-2.53,1.95-5.32,3.68-8.45,4.73c-1.56,0.5-3.17,0.93-4.82,1.09
			c-1.65,0.15-3.31,0.13-4.95-0.08c-3.27-0.47-6.36-1.71-9-3.5c-1.34-0.87-2.54-1.92-3.64-3.04c-1.08-1.15-2.15-2.26-2.83-3.77
			c-0.02-0.05,0-0.11,0.05-0.13c0.05-0.02,0.1,0,0.12,0.04L223.31,133.87z"/>
	</g>
	<g>
		<path class="st18" d="M335.53,161.48c0,0,5.39,20.7,25.44,14.66c0.22-0.22,14.01,21.56,32.34,0.43"/>
		<path class="st19" d="M335.63,161.46c0.78,2.63,2.01,5.14,3.56,7.41c1.56,2.26,3.51,4.28,5.85,5.72c1.17,0.72,2.42,1.29,3.73,1.71
			c1.31,0.42,2.67,0.62,4.03,0.73c2.74,0.15,5.49-0.28,8.12-1.07l-0.08,0.05c0.04-0.05,0.19-0.07,0.25-0.02
			c0.04,0.02,0.02,0.02,0.04,0.03l0.05,0.04l0.06,0.06l0.1,0.12l0.19,0.24l0.38,0.47l0.78,0.92c0.53,0.6,1.07,1.19,1.64,1.75
			c1.14,1.12,2.37,2.16,3.7,3.05c2.64,1.78,5.75,2.97,8.96,2.99c3.21,0.04,6.34-1.08,9.05-2.78c2.72-1.71,5.09-3.94,7.2-6.36
			c0.04-0.04,0.1-0.05,0.14-0.01c0.04,0.03,0.04,0.09,0.02,0.13l-0.01,0.01c-0.47,0.67-0.94,1.33-1.44,1.98
			c-0.52,0.63-1.06,1.25-1.62,1.85c-1.13,1.2-2.35,2.34-3.71,3.33c-1.37,0.98-2.86,1.83-4.49,2.45c-1.63,0.61-3.38,0.96-5.16,1.03
			c-3.58,0.11-7.11-1.14-10.01-3.03c-1.46-0.95-2.79-2.05-4.02-3.24c-0.61-0.6-1.21-1.21-1.76-1.85l-0.81-0.98l-0.39-0.48
			l-0.18-0.22l-0.06-0.07l0.01,0.01c0.04,0.04,0.09,0.09,0.14,0.13l0.04,0.03l0.17,0.11c0.25,0.15,0.7,0.3,1.16,0.22
			c0.46-0.07,0.79-0.31,0.97-0.5l-0.74,0.44c-2.8,0.81-5.79,1.28-8.8,1.01c-1.5-0.16-3-0.43-4.43-0.93
			c-1.43-0.51-2.77-1.21-4.01-2.05c-2.49-1.67-4.42-3.98-5.87-6.44c-1.39-2.5-2.48-5.15-2.93-7.93l0-0.01
			c-0.01-0.05,0.03-0.11,0.08-0.11C335.56,161.38,335.61,161.41,335.63,161.46z"/>
	</g>
</g>
</svg>
